# xmcd
# 
# Track frame offsets:
#     150
#     18875
#     37878
#     56604
# 
# Disc length: 1005
# 
# Revision: 5
# Processed by: cddbd v1.5.2PL0 Copyright (c) Steve Scherf et al.
# Submitted via: fre:ac v1.0.17
# 
DISCID=2403eb04
DTITLE=ZONE - true blue - 恋々
DYEAR=2003
DGENRE=Pop
TTITLE0=true blue
TTITLE1=恋々…
TTITLE2=true blue (backing track)
TTITLE3=恋々… (backing track)
EXTD=YEAR: 2003 ID3G: 13
EXTT0=
EXTT1=
EXTT2=
EXTT3=
PLAYORDER=
